HIERARCHY
ROOT Hips
{
  OFFSET -153.918 18.211 -82.9891
  CHANNELS 6 Xposition Yposition Zposition Zrotation Xrotation Yrotation
  JOINT ToSpine
  {
    OFFSET -2.69724 7.43032 -0.144315
    CHANNELS 3 Zrotation Xrotation Yrotation
    JOINT Spine
    {
      OFFSET -0.0310711 10.7595 1.96963
      CHANNELS 3 Zrotation Xrotation Yrotation
      JOINT Spine1
      {
        OFFSET 13.1342 3.43533 0.764692
        CHANNELS 3 Zrotation Xrotation Yrotation
        JOINT Neck
        {
          OFFSET 29.8703 7.82586 -0.130764
          CHANNELS 3 Zrotation Xrotation Yrotation
          JOINT Head
          {
            OFFSET 9.52751 0.295786 -0.907742
            CHANNELS 3 Zrotation Xrotation Yrotation
            End Site
            {
              OFFSET 16.4037 0.713936 2.7358
            }
          }
        }
        JOINT LeftShoulder
        {
          OFFSET 27.5574 4.95586 2.47156
          CHANNELS 3 Zrotation Xrotation Yrotation
          JOINT LeftArm
          {
            OFFSET 1.20734 -0.998971 20.1238
            CHANNELS 3 Zrotation Xrotation Yrotation
            JOINT LeftForeArm
            {
              OFFSET 26.8049 -0.0536703 -0.155908
              CHANNELS 3 Zrotation Xrotation Yrotation
              JOINT LeftHand
              {
                OFFSET 26.6817 0 0.320147
                CHANNELS 3 Zrotation Xrotation Yrotation
                End Site
                {
                  OFFSET 18.6119 0 0.382219
                }
              }
            }
          }
        }
        JOINT RightShoulder
        {
          OFFSET 27.5927 4.71444 -2.65209
          CHANNELS 3 Zrotation Xrotation Yrotation
          JOINT RightArm
          {
            OFFSET 2.83739 -1.17114 -18.7564
            CHANNELS 3 Zrotation Xrotation Yrotation
            JOINT RightForeArm
            {
              OFFSET 28.839 -0.0548439 1.22491
              CHANNELS 3 Zrotation Xrotation Yrotation
              JOINT RightHand
              {
                OFFSET 26.5114 0 -0.101894
                CHANNELS 3 Zrotation Xrotation Yrotation
                End Site
                {
                  OFFSET 18.2168 0 0
                }
              }
            }
          }
        }
      }
    }
  }
  JOINT LeftUpLeg
  {
    OFFSET -4.76168 -1.9167 -10.2353
    CHANNELS 3 Zrotation Xrotation Yrotation
    JOINT LeftLeg
    {
      OFFSET 2.55951 -42.0585 -8.02213
      CHANNELS 3 Zrotation Xrotation Yrotation
      JOINT LeftFoot
      {
        OFFSET 3.16357 -42.5282 -3.95426
        CHANNELS 3 Zrotation Xrotation Yrotation
        JOINT LeftToeBase
        {
          OFFSET 0.346054 -6.02161 12.8035
          CHANNELS 3 Zrotation Xrotation Yrotation
          End Site
          {
            OFFSET 0.134235 -1.35082 5.13018
          }
        }
      }
    }
  }
  JOINT RightUpLeg
  {
    OFFSET -4.94151 -1.41743 10.6446
    CHANNELS 3 Zrotation Xrotation Yrotation
    JOINT RightLeg
    {
      OFFSET -2.56294 -42.0364 -7.94377
      CHANNELS 3 Zrotation Xrotation Yrotation
      JOINT RightFoot
      {
        OFFSET -3.0952 -42.555 -4.02241
        CHANNELS 3 Zrotation Xrotation Yrotation
        JOINT RightToeBase
        {
          OFFSET -0.0828122 -6.13587 12.8035
          CHANNELS 3 Zrotation Xrotation Yrotation
          End Site
          {
            OFFSET -0.131328 -1.35082 5.13018
          }
        }
      }
    }
  }
}
MOTION
Frames:	10
Frame Time:	0.0333333
-30.3009 24.9437 20.2124 8.51859 15.0057 -41.2336 -70.1915 0 88.8779 106.41 68.7242 -29.2015 -5.46273 18.1174 2.91708 -146.785 20.4066 148.163 -123.718 61.1084 -170.929 0.280669 -14.9403 -26.2079 -91.2632 23.6879 -63.5556 48.2427 -3.22378 -92.1738 0.420957 0.000575287 0.35866 -3.31171 -10.6317 -28.4805 -48.5868 -79.6755 -157.785 41.6702 -4.32211 84.9351 0.58676 0.000331076 0.0646654 -6.1985 37.5155 99.8729 -157.857 71.9554 129.057 -0.332589 -11.4248 -0.986608 21.3006 -30.7654 34.849 -57.9705 -3.73751 87.2527 2.97061 37.1033 15.1065 -9.83621 -14.6945 1.30712 10.861 -50.051 11.5945 
-31.8251 26.3081 19.5607 5.26238 13.6171 -40.7157 -70.1915 0 88.8779 109.875 69.6303 -31.7958 -6.71895 20.105 -0.181921 -147.856 20.126 143.845 -120.647 60.2012 -173.78 -0.142844 -17.0579 -27.4563 -83.5811 21.1303 -71.2018 47.6485 3.15496 -86.4506 0.420957 0.000575287 0.35866 -2.38744 -8.67063 -25.0659 -94.7184 -77.9773 156.234 38.4559 -3.34 85.5552 0.58676 0.000331076 0.0646654 -4.20776 39.772 98.5447 -158.337 70.9843 125.835 -0.148139 -11.951 -1.03517 20.8633 -30.8557 32.3983 -52.8278 -3.39788 85.9137 3.13703 40.7185 13.6473 -10.2216 -16.4856 1.28667 11.5697 -51.821 11.995 
-33.0644 27.7923 18.6768 1.80745 11.9106 -40.6335 -70.1915 0 88.8779 117.023 68.5921 -39.4724 -10.3861 20.4254 0.274667 -154.752 22.4901 148.761 -129.219 62.012 -169.609 -0.251922 -17.1976 -28.7603 -78.5223 15.7839 -81.4074 44.0395 8.03098 -81.1227 0.420957 0.000575287 0.35866 -2.09169 -7.48775 -25.8048 -112.087 -77.0847 140.5 35.9784 -2.94159 85.6847 0.58676 0.000331076 0.0646654 -3.86696 42.1648 99.071 -158.965 70.0416 124.162 -1.00324 -10.4527 -0.880289 18.7025 -29.7898 26.5305 -47.6203 -3.7453 83.6781 3.59818 44.4246 14.2155 -11.9226 -17.597 1.23003 9.88741 -54.3385 5.66253 
-33.9744 29.0471 17.5066 -1.57574 10.9827 -39.8781 -70.1915 0 88.8779 121.768 67.2112 -44.1383 -13.7232 20.6597 0.412718 -159.534 22.8633 149.186 -132.522 61.6802 -168.967 -0.756411 -19.1839 -30.3181 -80.5139 11.8065 -75.598 45.8048 3.18986 -86.2266 0.420957 0.000575287 0.35866 -2.0827 -7.67929 -24.7224 -122.847 -76.0864 132.315 33.6745 -2.89787 85.3785 0.58676 0.000331076 0.0646654 -4.01339 43.65 99.8379 -159.135 70.5025 129.539 -2.789 -6.39926 -0.389279 16.6331 -28.2889 21.7078 -42.9084 -4.9116 78.9288 4.2405 47.6841 16.1994 -11.1696 -17.1177 1.25912 9.15966 -59.1469 1.31089 
-34.7042 30.0622 16.0616 -4.96445 8.96798 -38.9709 -70.1915 0 88.8779 125.704 66.5288 -47.3687 -15.9717 20.2129 0.9642 -164.014 23.7532 151.468 -136.457 62.1102 -167.809 -0.269877 -17.3027 -28.7339 -82.467 12.5327 -75.0522 45.0198 -0.227297 -89.5373 0.420957 0.000575287 0.35866 -1.58181 -4.85147 -31.8487 -153.503 -76.1734 98.2183 31.5215 -1.23978 87.6361 0.58676 0.000331076 0.0646654 -6.56014 45.3217 100.721 -158.259 71.9052 131.656 -5.41505 -1.89428 0.373143 14.4771 -26.2588 17.2061 -38.3992 -5.14242 75.9676 4.74716 51.8487 14.0626 -8.76636 -19.872 1.31486 11.5095 -56.1087 8.45862 
-35.2584 30.8021 14.2345 -7.77322 7.73641 -38.1197 -70.1915 0 88.8779 130.132 66.181 -49.1049 -17.8243 21.098 -0.16301 -165.389 24.4629 152.571 -136.169 62.5384 -168.536 -0.0785566 -16.3118 -28.6239 -82.4852 11.3279 -77.9709 44.8866 -1.41854 -90.7291 0.420957 0.000575287 0.35866 -1.13958 -3.44672 -33.3222 -160.473 -71.7148 90.9778 29.6416 -0.798793 88.1973 0.58676 0.000331076 0.0646654 -10.1011 45.108 101.998 -155.237 74.6752 129.924 -6.28534 1.03548 0.860829 12.7527 -24.3408 13.4066 -34.5 -5.35864 73.6285 5.64589 55.6139 14.6234 -11.0514 -15.8086 1.28673 7.29506 -61.3112 -3.51553 
-35.6057 31.3556 12.2901 -9.76745 7.22893 -36.9229 -70.1915 0 88.8779 135.152 65.2785 -51.1916 -19.3143 22.7124 -1.08816 -166.914 24.6185 152.263 -135.824 62.3058 -169.357 -0.269739 -16.9859 -29.6707 -85.171 10.6576 -76.0267 44.8507 -4.35916 -93.6629 0.420957 0.000575287 0.35866 -2.16307 -6.36671 -31.581 -159.517 -70.5356 95.9908 27.0485 -1.91577 85.8639 0.58676 0.000331076 0.0646654 -14.1655 43.1331 103.011 -145.435 79.3084 119.384 -9.13539 3.33122 1.61929 12.5452 -23.9902 13.8265 -30.9101 -5.91563 71.4097 6.70754 59.5628 13.6238 -10.4739 -16.2755 1.28567 4.94292 -60.7945 -8.34166 
-35.9585 31.5814 10.1942 -11.6092 6.62467 -35.6556 -70.1915 0 88.8779 138.829 64.7172 -52.5503 -20.9632 22.7201 -0.749688 -169.202 25.1988 152.959 -135.641 62.3875 -170.681 -0.0756918 -16.2023 -28.9367 -86.1007 12.2759 -76.9304 45.3462 -6.29026 -95.4648 0.420957 0.000575287 0.35866 -1.72952 -4.79614 -34.2269 -164.002 -65.8722 90.8407 25.2384 -1.59636 86.1609 0.58676 0.000331076 0.0646654 -18.7605 40.9248 104.115 -104.863 84.3706 81.2513 -10.0743 6.50673 2.2917 11.3272 -22.4144 11.1869 -27.8607 -7.19962 67.973 8.00712 63.8232 10.6648 -9.42469 -17.691 1.29379 5.35571 -57.8522 -6.85158 
-36.2357 31.4275 8.05378 -13.6603 5.18202 -34.5856 -70.1915 0 88.8779 143.246 64.5874 -53.9402 -21.4528 23.9466 -0.709233 -172.06 25.603 155.871 -139.291 63.0884 -168.196 -0.189493 -16.3922 -30.2911 -87.7681 11.6716 -75.129 45.1527 -8.92051 -98.0449 0.420957 0.000575287 0.35866 -2.43312 -6.55369 -34.1302 -162.635 -64.3705 96.3466 24.4578 -2.64529 83.7485 0.58676 0.000331076 0.0646654 -24.8991 39.3183 106.119 -30.213 80.5717 8.59473 -12.8224 9.15733 3.30917 10.152 -20.7155 8.46032 -25.7395 -8.69791 63.7168 10.2221 68.1446 8.74965 -10.4159 -16.0286 1.28976 3.79292 -62.0276 -10.9027 
-36.4314 30.8336 5.78385 -15.0131 4.39336 -34.1613 -70.1915 0 88.8779 145.916 64.2172 -54.1529 -22.0455 24.5281 -1.19574 -174.203 25.7465 155.188 -136.475 62.2123 -172.392 -0.230784 -16.5356 -30.5018 -89.5247 12.9405 -72.7983 43.6426 -11.1859 -100.764 0.420957 0.000575287 0.35866 -2.55138 -6.55303 -35.7005 -164.659 -61.4906 95.5833 20.0794 -2.42655 82.8525 0.58676 0.000331076 0.0646654 -31.7537 35.3495 107.48 -11.3336 69.4713 -9.03182 -14.4804 11.4387 4.12385 9.80489 -20.1431 8.39739 -23.9718 -11.9506 59.8927 14.0147 73.3225 3.1579 -8.90273 -17.5857 1.3076 0.473312 -55.4394 -18.5416 
